<mxfile host="app.diagrams.net" modified="2021-08-23T07:02:32.641Z" agent="5.0 (Windows NT 10.0; WOW64) AppleWebKit/537.36 (KHTML, like Gecko) Chrome/92.0.4515.131 Safari/537.36" etag="Lwbn-ZYVsmEC3k2j41Zy" version="14.8.4" type="github">
  <diagram id="kgpKYQtTHZ0yAKxKKP6v" name="Page-1">
    <mxGraphModel dx="1038" dy="675" grid="1" gridSize="10" guides="1" tooltips="1" connect="1" arrows="1" fold="1" page="1" pageScale="1" pageWidth="850" pageHeight="1100" math="0" shadow="0">
      <root>
        <mxCell id="0" />
        <mxCell id="1" parent="0" />
        <object label="" id="TsqY3HCIGFJ2zq7cLXyA-16">
          <mxCell style="rounded=0;whiteSpace=wrap;html=1;fillColor=none;" vertex="1" parent="1">
            <mxGeometry x="220" y="20" width="620" height="80" as="geometry" />
          </mxCell>
        </object>
        <mxCell id="3nuBFxr9cyL0pnOWT2aG-1" value="客户系统" style="shape=umlLifeline;perimeter=lifelinePerimeter;container=1;collapsible=0;recursiveResize=0;rounded=0;shadow=0;strokeWidth=1;" parent="1" vertex="1">
          <mxGeometry x="40" y="40" width="110" height="440" as="geometry" />
        </mxCell>
        <mxCell id="3nuBFxr9cyL0pnOWT2aG-2" value="" style="points=[];perimeter=orthogonalPerimeter;rounded=0;shadow=0;strokeWidth=1;" parent="3nuBFxr9cyL0pnOWT2aG-1" vertex="1">
          <mxGeometry x="50" y="80" width="10" height="250" as="geometry" />
        </mxCell>
        <mxCell id="3nuBFxr9cyL0pnOWT2aG-5" value="BO层" style="shape=umlLifeline;perimeter=lifelinePerimeter;container=1;collapsible=0;recursiveResize=0;rounded=0;shadow=0;strokeWidth=1;" parent="1" vertex="1">
          <mxGeometry x="240" y="40" width="120" height="440" as="geometry" />
        </mxCell>
        <mxCell id="TsqY3HCIGFJ2zq7cLXyA-11" value="CP数据库" style="shape=umlLifeline;perimeter=lifelinePerimeter;container=1;collapsible=0;recursiveResize=0;rounded=0;shadow=0;strokeWidth=1;" vertex="1" parent="1">
          <mxGeometry x="660" y="40" width="160" height="440" as="geometry" />
        </mxCell>
        <mxCell id="TsqY3HCIGFJ2zq7cLXyA-12" value="" style="points=[];perimeter=orthogonalPerimeter;rounded=0;shadow=0;strokeWidth=1;" vertex="1" parent="TsqY3HCIGFJ2zq7cLXyA-11">
          <mxGeometry x="75" y="200" width="10" height="80" as="geometry" />
        </mxCell>
        <mxCell id="TsqY3HCIGFJ2zq7cLXyA-13" value="" style="html=1;points=[];perimeter=orthogonalPerimeter;" vertex="1" parent="TsqY3HCIGFJ2zq7cLXyA-11">
          <mxGeometry x="75" y="340" width="10" height="40" as="geometry" />
        </mxCell>
        <mxCell id="TsqY3HCIGFJ2zq7cLXyA-19" value="" style="points=[];perimeter=orthogonalPerimeter;rounded=0;shadow=0;strokeWidth=1;" vertex="1" parent="1">
          <mxGeometry x="295" y="160" width="10" height="40" as="geometry" />
        </mxCell>
        <mxCell id="TsqY3HCIGFJ2zq7cLXyA-20" value="" style="html=1;points=[];perimeter=orthogonalPerimeter;" vertex="1" parent="1">
          <mxGeometry x="295" y="240.2" width="10" height="79.8" as="geometry" />
        </mxCell>
        <mxCell id="TsqY3HCIGFJ2zq7cLXyA-21" value="消息处理,合并同一主键消息" style="edgeStyle=orthogonalEdgeStyle;html=1;align=left;spacingLeft=2;endArrow=block;rounded=0;entryX=1;entryY=0;exitX=0.82;exitY=0.995;exitDx=0;exitDy=0;exitPerimeter=0;" edge="1" parent="1" target="TsqY3HCIGFJ2zq7cLXyA-20">
          <mxGeometry relative="1" as="geometry">
            <mxPoint x="303.20000000000005" y="200" as="sourcePoint" />
            <Array as="points">
              <mxPoint x="330" y="200.2" />
              <mxPoint x="330" y="240.2" />
            </Array>
          </mxGeometry>
        </mxCell>
        <mxCell id="TsqY3HCIGFJ2zq7cLXyA-28" value="实时标签工程" style="text;html=1;strokeColor=none;fillColor=none;align=center;verticalAlign=middle;whiteSpace=wrap;rounded=0;" vertex="1" parent="1">
          <mxGeometry x="440" y="20" width="120" height="20" as="geometry" />
        </mxCell>
        <mxCell id="TsqY3HCIGFJ2zq7cLXyA-29" value="LRU缓存" style="shape=umlLifeline;perimeter=lifelinePerimeter;container=1;collapsible=0;recursiveResize=0;rounded=0;shadow=0;strokeWidth=1;" vertex="1" parent="1">
          <mxGeometry x="440" y="40.2" width="100" height="440" as="geometry" />
        </mxCell>
        <mxCell id="TsqY3HCIGFJ2zq7cLXyA-30" value="" style="points=[];perimeter=orthogonalPerimeter;rounded=0;shadow=0;strokeWidth=1;" vertex="1" parent="1">
          <mxGeometry x="484.5" y="420" width="10" height="40" as="geometry" />
        </mxCell>
        <mxCell id="TsqY3HCIGFJ2zq7cLXyA-31" value="" style="html=1;points=[];perimeter=orthogonalPerimeter;" vertex="1" parent="1">
          <mxGeometry x="484.5" y="500.2" width="10" height="40" as="geometry" />
        </mxCell>
        <mxCell id="TsqY3HCIGFJ2zq7cLXyA-32" value="消息处理,合并同一主键消息" style="edgeStyle=orthogonalEdgeStyle;html=1;align=left;spacingLeft=2;endArrow=block;rounded=0;entryX=1;entryY=0;exitX=0.82;exitY=0.995;exitDx=0;exitDy=0;exitPerimeter=0;" edge="1" parent="1" target="TsqY3HCIGFJ2zq7cLXyA-31">
          <mxGeometry relative="1" as="geometry">
            <mxPoint x="492.70000000000005" y="460" as="sourcePoint" />
            <Array as="points">
              <mxPoint x="519.5" y="460.2" />
              <mxPoint x="519.5" y="500.2" />
            </Array>
          </mxGeometry>
        </mxCell>
        <mxCell id="3nuBFxr9cyL0pnOWT2aG-3" value="用户消息" style="verticalAlign=bottom;startArrow=oval;endArrow=block;startSize=8;shadow=0;strokeWidth=1;entryX=0.22;entryY=-0.005;entryDx=0;entryDy=0;entryPerimeter=0;" parent="1" target="TsqY3HCIGFJ2zq7cLXyA-19" edge="1">
          <mxGeometry x="-0.0161" relative="1" as="geometry">
            <mxPoint x="95" y="160" as="sourcePoint" />
            <mxPoint x="270" y="160" as="targetPoint" />
            <Array as="points" />
            <mxPoint as="offset" />
          </mxGeometry>
        </mxCell>
        <mxCell id="3nuBFxr9cyL0pnOWT2aG-9" value="查询用户信息" style="verticalAlign=bottom;endArrow=block;shadow=0;strokeWidth=1;entryX=0.06;entryY=0.247;entryDx=0;entryDy=0;entryPerimeter=0;" parent="1" edge="1">
          <mxGeometry relative="1" as="geometry">
            <mxPoint x="305" y="260" as="sourcePoint" />
            <mxPoint x="736.5999999999999" y="259.76" as="targetPoint" />
          </mxGeometry>
        </mxCell>
        <mxCell id="TsqY3HCIGFJ2zq7cLXyA-33" value="返回用户信息" style="verticalAlign=bottom;endArrow=none;shadow=0;strokeWidth=1;entryX=0.06;entryY=0.247;entryDx=0;entryDy=0;entryPerimeter=0;startArrow=block;startFill=1;endFill=0;dashed=1;" edge="1" parent="1">
          <mxGeometry relative="1" as="geometry">
            <mxPoint x="304" y="300.24" as="sourcePoint" />
            <mxPoint x="735.5999999999999" y="300" as="targetPoint" />
          </mxGeometry>
        </mxCell>
      </root>
    </mxGraphModel>
  </diagram>
</mxfile>
